<?xml version="1.0" encoding="UTF-8" standalone="no"?>
<svg width="30px" height="30px" viewBox="0 0 30 30" version="1.1" xmlns="http://www.w3.org/2000/svg" xmlns:xlink="http://www.w3.org/1999/xlink" xmlns:sketch="http://www.bohemiancoding.com/sketch/ns">
    <!-- Generator: Sketch 3.3.3 (12081) - http://www.bohemiancoding.com/sketch -->
    <title>Close </title>
    <desc>Created with Sketch.</desc>
    <defs></defs>
    <g id="Page-1" stroke="none" stroke-width="1" fill="none" fill-rule="evenodd" sketch:type="MSPage">
        <g id="CloseIcon" sketch:type="MSArtboardGroup" transform="translate(-7.000000, -7.000000)" fill="#D8D8D8">
            <path d="M17.1046883,22 L8.01176745,31.0929208 C6.66269001,32.4419982 6.66199119,34.6344028 8.0137942,35.9862058 C9.36284656,37.3352582 11.5563955,37.3389162 12.9070792,35.9882326 L22,26.8953117 L31.0929208,35.9882326 C32.4436045,37.3389162 34.6371534,37.3352582 35.9862058,35.9862058 C37.3380088,34.6344028 37.33731,32.4419982 35.9882326,31.0929208 L26.8953117,22 L35.9882326,12.9070792 C37.33731,11.5580018 37.3380088,9.36559721 35.9862058,8.0137942 C34.6371534,6.66474184 32.4436045,6.66108378 31.0929208,8.01176745 L22,17.1046883 L12.9070792,8.01176745 C11.5563955,6.66108378 9.36284656,6.66474184 8.0137942,8.0137942 C6.66199119,9.36559721 6.66269001,11.5580018 8.01176745,12.9070792 L17.1046883,22 L17.1046883,22 Z" id="Close-" sketch:type="MSShapeGroup"></path>
        </g>
    </g>
</svg>