<?xml version="1.0" encoding="UTF-8" standalone="no"?>
<svg width="24px" height="24px" viewBox="0 0 24 24" version="1.1" xmlns="http://www.w3.org/2000/svg" xmlns:xlink="http://www.w3.org/1999/xlink" xmlns:sketch="http://www.bohemiancoding.com/sketch/ns">
    <!-- Generator: Sketch 3.3.3 (12081) - http://www.bohemiancoding.com/sketch -->
    <title>Close </title>
    <desc>Created with Sketch.</desc>
    <defs></defs>
    <g id="Page-1" stroke="none" stroke-width="1" fill="none" fill-rule="evenodd" sketch:type="MSPage">
        <g id="Close" sketch:type="MSArtboardGroup" transform="translate(-7.000000, -8.000000)" fill="#D8D8D8">
            <path d="M15.0839448,20.0003787 L7.80942451,27.274899 C6.73013532,28.3541882 6.72957624,30.1081561 7.81104596,31.1896258 C8.89031509,32.268895 10.6451986,32.2718215 11.7257728,31.1912473 L19.0002931,23.916727 L26.2748134,31.1912473 C27.3553876,32.2718215 29.1102711,32.268895 30.1895402,31.1896258 C31.2710099,30.1081561 31.2704508,28.3541882 30.1911616,27.274899 L22.9166413,20.0003787 L30.1911616,12.7258584 C31.2704508,11.6465692 31.2710099,9.89260128 30.1895402,8.81113157 C29.1102711,7.73186243 27.3553876,7.72893591 26.2748134,8.80951012 L19.0002931,16.0840304 L11.7257728,8.80951012 C10.6451986,7.72893591 8.89031509,7.73186243 7.81104596,8.81113157 C6.72957624,9.89260128 6.73013532,11.6465692 7.80942451,12.7258584 L15.0839448,20.0003787 L15.0839448,20.0003787 Z" id="Close-" sketch:type="MSShapeGroup"></path>
        </g>
    </g>
</svg>