<?xml version="1.0" encoding="UTF-8" standalone="no"?>
<svg width="32px" height="26px" viewBox="0 0 32 26" version="1.1" xmlns="http://www.w3.org/2000/svg" xmlns:xlink="http://www.w3.org/1999/xlink" xmlns:sketch="http://www.bohemiancoding.com/sketch/ns">
    <!-- Generator: Sketch 3.3.3 (12081) - http://www.bohemiancoding.com/sketch -->
    <title>Flip</title>
    <desc>Created with Sketch.</desc>
    <defs></defs>
    <g id="Page-1" stroke="none" stroke-width="1" fill="none" fill-rule="evenodd" sketch:type="MSPage">
        <g id="Flip" sketch:type="MSArtboardGroup" transform="translate(-6.000000, -9.000000)" fill="#000000">
            <path d="M37.6910286,20 L34.8480286,20 C33.8830286,13.772 28.5090286,9 22.0050286,9 C16.9900286,9 12.6450286,11.839 10.4720286,15.991 L12.3360286,16.736 C14.2050286,13.318 17.8340286,11 22.0050286,11 C27.4020286,11 31.8830286,14.881 32.8260286,20 L29.4100286,20 C29.1000286,20.301 28.8040286,20.486 29.2480286,21.007 L32.9780286,24.801 C33.2880286,25.101 33.7890286,25.101 34.0970286,24.801 L37.8530286,21.007 C38.1620286,20.706 38.0000286,20.301 37.6910286,20 L37.6910286,20 Z M22.0050286,33 C16.9660286,33 12.7230286,29.616 11.4170286,25 L14.6680286,25 C14.9780286,24.7 15.1390286,24.294 14.8310286,23.994 L11.0750286,20.199 C10.7660286,19.899 10.2650286,19.899 9.95602857,20.199 L6.22502857,23.994 C5.78202857,24.515 6.07802857,24.7 6.38702857,25 L9.36802857,25 C10.7240286,30.73 15.8550286,35 22.0050286,35 C26.6850286,35 30.7750286,32.524 33.0680286,28.82 L31.1850286,28.068 C29.2140286,31.039 25.8400286,33 22.0050286,33 L22.0050286,33 Z" sketch:type="MSShapeGroup"></path>
        </g>
    </g>
</svg>