<?xml version="1.0" encoding="UTF-8" standalone="no"?>
<svg width="32px" height="28px" viewBox="0 0 32 28" version="1.1" xmlns="http://www.w3.org/2000/svg" xmlns:xlink="http://www.w3.org/1999/xlink" xmlns:sketch="http://www.bohemiancoding.com/sketch/ns">
    <!-- Generator: Sketch 3.3.3 (12081) - http://www.bohemiancoding.com/sketch -->
    <title>Fill 116</title>
    <desc>Created with Sketch.</desc>
    <defs></defs>
    <g id="Page-1" stroke="none" stroke-width="1" fill="none" fill-rule="evenodd" sketch:type="MSPage">
        <g id="Flip" sketch:type="MSArtboardGroup" transform="translate(-6.000000, -8.000000)" fill="#13110D">
            <path d="M37.6910286,20 L35.8620286,20 C34.8890286,13.218 29.0720286,8 22.0210286,8 C16.5720286,8 11.8620286,11.12 9.54802857,15.664 L13.3030286,17.108 C15.0170286,14.062 18.2760286,12 22.0210286,12 C26.8590286,12 30.8940286,15.436 31.8200286,20 L29.4100286,20 C29.1000286,20.301 28.8040286,20.486 29.2480286,21.007 L32.9780286,24.801 C33.2880286,25.101 33.7890286,25.101 34.0970286,24.801 L37.8530286,21.007 C38.1620286,20.706 38.0000286,20.301 37.6910286,20 L37.6910286,20 Z M22.0210286,32 C17.5430286,32 13.7540286,29.057 12.4800286,25 L14.6680286,25 C14.9780286,24.7 15.1390286,24.294 14.8310286,23.994 L11.0750286,20.199 C10.7660286,19.899 10.2650286,19.899 9.95602857,20.199 L6.22502857,23.994 C5.78202857,24.515 6.07802857,24.7 6.38702857,25 L8.22002857,25 C9.30502857,30.933 15.0620286,36 22.0210286,36 C27.1140286,36 31.5580286,33.271 34.0080286,29.205 L30.2230286,27.711 C28.4170286,30.302 25.4180286,32 22.0210286,32 L22.0210286,32 Z" id="Fill-116" sketch:type="MSShapeGroup"></path>
        </g>
    </g>
</svg>