<?xml version="1.0" encoding="UTF-8" standalone="no"?>
<svg width="33px" height="33px" viewBox="0 0 33 33" version="1.1" xmlns="http://www.w3.org/2000/svg" xmlns:xlink="http://www.w3.org/1999/xlink" xmlns:sketch="http://www.bohemiancoding.com/sketch/ns">
    <!-- Generator: Sketch 3.3.3 (12081) - http://www.bohemiancoding.com/sketch -->
    <title>TorchOff</title>
    <desc>Created with Sketch.</desc>
    <defs></defs>
    <g id="Page-1" stroke="none" stroke-width="1" fill="none" fill-rule="evenodd" sketch:type="MSPage">
        <g id="TorchOff" sketch:type="MSArtboardGroup" transform="translate(-6.000000, -6.000000)" fill="#000000">
            <path d="M22.5,29.7166875 C18.5142187,29.7166875 15.2833125,26.4857813 15.2833125,22.5 C15.2833125,18.5142187 18.5142187,15.2833125 22.5,15.2833125 C26.4857813,15.2833125 29.7166875,18.5142187 29.7166875,22.5 C29.7166875,26.4857813 26.4857813,29.7166875 22.5,29.7166875 L22.5,29.7166875 Z M22.5,13.2125625 C17.3705625,13.2125625 13.2125625,17.3705625 13.2125625,22.5 C13.2125625,27.6294375 17.3705625,31.7874375 22.5,31.7874375 C27.6294375,31.7874375 31.7874375,27.6294375 31.7874375,22.5 C31.7874375,17.3705625 27.6294375,13.2125625 22.5,13.2125625 L22.5,13.2125625 Z M13.6415625,29.9136562 L11.4749063,32.0813438 C11.0758125,32.4804375 11.0758125,33.1270313 11.4749063,33.5250937 C11.8729687,33.9241875 12.5195625,33.9241875 12.9186563,33.5250937 L15.0863438,31.3584375 C15.4844063,30.9593437 15.4844063,30.31275 15.0863438,29.9136562 C14.68725,29.5155937 14.0406563,29.5155937 13.6415625,29.9136562 L13.6415625,29.9136562 Z M37.96875,21.46875 L34.875,21.46875 C34.3047188,21.46875 33.84375,21.9297188 33.84375,22.5 C33.84375,23.0702812 34.3047188,23.53125 34.875,23.53125 L37.96875,23.53125 C38.5390312,23.53125 39,23.0702812 39,22.5 C39,21.9297188 38.5390312,21.46875 37.96875,21.46875 L37.96875,21.46875 Z M31.97925,30.5210625 C31.5770625,30.118875 30.9242812,30.118875 30.5210625,30.5210625 C30.118875,30.9242812 30.118875,31.5770625 30.5210625,31.97925 L32.7083437,34.1665312 C33.1115625,34.56975 33.7643438,34.56975 34.1665312,34.1665312 C34.56975,33.765375 34.56975,33.1115625 34.1665312,32.7083437 L31.97925,30.5210625 L31.97925,30.5210625 Z M22.5,33.84375 C21.9297188,33.84375 21.46875,34.3047188 21.46875,34.875 L21.46875,37.96875 C21.46875,38.5390312 21.9297188,39 22.5,39 C23.0702812,39 23.53125,38.5390312 23.53125,37.96875 L23.53125,34.875 C23.53125,34.3047188 23.0702812,33.84375 22.5,33.84375 L22.5,33.84375 Z M22.5,11.15625 C23.0702812,11.15625 23.53125,10.6952812 23.53125,10.125 L23.53125,7.03125 C23.53125,6.46096875 23.0702812,6 22.5,6 C21.9297188,6 21.46875,6.46096875 21.46875,7.03125 L21.46875,10.125 C21.46875,10.6952812 21.9297188,11.15625 22.5,11.15625 L22.5,11.15625 Z M13.02075,14.4789375 C13.4229375,14.881125 14.0757188,14.881125 14.4789375,14.4789375 C14.881125,14.0757188 14.881125,13.4229375 14.4789375,13.02075 L12.2916562,10.8334688 C11.8884375,10.43025 11.2356562,10.43025 10.8334688,10.8334688 C10.43025,11.2356562 10.43025,11.8884375 10.8334688,12.2916562 L13.02075,14.4789375 L13.02075,14.4789375 Z M32.4216562,14.0220937 L34.5893438,11.8564687 C34.9874063,11.4563437 34.9874063,10.80975 34.5893438,10.4106562 C34.19025,10.0125937 33.5436562,10.0125937 33.1435313,10.4106562 L30.9779063,12.5783437 C30.5788125,12.9774375 30.5788125,13.6240312 30.9779063,14.0220937 C31.3759688,14.4222187 32.0225625,14.4222187 32.4216562,14.0220937 L32.4216562,14.0220937 Z M10.125,21.46875 L7.03125,21.46875 C6.46096875,21.46875 6,21.9297188 6,22.5 C6,23.0702812 6.46096875,23.53125 7.03125,23.53125 L10.125,23.53125 C10.6952812,23.53125 11.15625,23.0702812 11.15625,22.5 C11.15625,21.9297188 10.6952812,21.46875 10.125,21.46875 L10.125,21.46875 Z" sketch:type="MSShapeGroup"></path>
        </g>
    </g>
</svg>